<svg xmlns="http://www.w3.org/2000/svg" width="87" height="72" viewBox="0 0 87 72"><g><g><path fill="#ffcc01" d="M30.89 3.07c.142-.143.232-.279.416-.279v.095c.372.09.654-.326.98-.054.28.238.61.42.84.648-2.89 1.786-5.737 3.902-8.35 6.467-1.26-.45-2.422-1.143-3.546-1.923l.001-.09c2.942-2.155 6.206-3.761 9.66-4.864zm18.8-.73c-4.06 2.935-10.637 3.212-14.927.499-.24-.184-.7-.273-.75-.595C38.96 1.1 44.787 1.007 49.69 2.243zm12.83 5.501l-.094.183-3.216 1.788h-.238c-2.468-2.47-5.36-4.627-8.303-6.33.094-.322.562-.553.886-.782 3.919 1.013 7.605 2.754 10.964 5.141zm-4.99 2.704c-1.823.777-3.69 1.512-5.694 1.933-1.445-2.432-3.03-4.864-4.808-7.214.654-.36 1.451-.635 2.15-1 3.037 1.512 5.973 3.667 8.442 6.138zM42.644 6.092c.936-.134 1.958-.276 2.893-.412 1.82 2.292 3.596 4.64 4.81 7.153a33.032 33.032 0 0 1-7.703.928c-.092-2.44-.044-5.144 0-7.669zm-5.227 7.477c-1.253-.184-2.843-.317-4.102-.736 1.353-2.512 2.942-4.95 4.853-7.192l2.987.407c.138 2.383.043 5.138.043 7.664-1.302.183-2.47-.041-3.78-.143zm-5.69-1.051c-1.914-.5-3.78-1.102-5.551-1.88l.09-.275c2.563-2.432 5.266-4.453 8.249-6.01.702.276 1.4.504 2.1.83l-.138.358c-1.774 2.208-3.169 4.59-4.564 6.937zm-15.395-.551c1.209-1.147 2.333-2.247 3.641-3.076 1.214.779 2.565 1.428 3.731 2.159-1.445 1.78-2.939 3.576-4.011 5.497.324.144.933.099 1.4 0 1.166-1.694 2.422-3.39 3.92-4.905 2.001.736 3.963 1.513 6.019 2.066l.18.182-1.161 2.657c.515.099.841.05 1.351 0 .419-.774.743-1.643 1.21-2.428 2.71.6 5.556.919 8.448 1.008.37.325.092 1.01.233 1.42h1.259c.137-.45-.047-.96.137-1.369 2.708-.142 5.553-.418 8.174-1.06l.227.048 1.26 2.38c.42 0 .98.098 1.306-.095l-1.169-2.653.098-.092c2.142-.55 4.151-1.376 6.203-2.2 1.45 1.513 2.8 3.301 4.017 5.038.51 0 1.024.05 1.398-.094a18.554 18.554 0 0 0-2.007-2.888 19.536 19.536 0 0 0-2.056-2.47v-.237l3.267-1.877.47-.184a34.081 34.081 0 0 1 7.367 7.656c.56 0 1.028.193 1.495-.039C66.481 7.063 56.173 1.048 45.03.181l-.05.09-.095-.09C43.626.048 42.081-.006 40.73.129c-.512-.04-1.117 0-1.725.054C27.81 1.048 17.501 6.784 11.06 16.55c.467-.044 1.027.142 1.494-.044a43.04 43.04 0 0 1 3.778-4.54zM51.93 69.128c-.374-.183-.699-.458-1.028-.735l.094-.14c2.987-1.738 5.69-3.855 8.258-6.38 1.26.504 2.474 1.197 3.597 1.973-2.615 2.076-5.65 3.447-8.728 4.596zm-17.681.503c-.095-.229.233-.278.372-.412 4.339-2.808 11.1-2.808 15.35.223.138.277-.234.19-.328.277-4.944 1.065-10.452 1.105-15.394-.088zM21.416 63.99v-.143c1.12-.682 2.244-1.418 3.453-1.929 2.661 2.624 5.411 4.598 8.397 6.476-.232.275-.605.552-.93.735-3.92-1.013-7.561-2.756-10.92-5.14zm4.899-2.705c1.822-.875 3.73-1.522 5.686-2.022l.189.048c1.347 2.525 3.028 4.91 4.705 7.296-.648.37-1.444.59-2.095.963a31.4 31.4 0 0 1-8.484-6.151v-.134zm7.515-2.48c2.422-.458 4.937-.825 7.545-.825l.048 7.764c-.98.222-2.052.222-2.984.458-1.91-2.255-3.493-4.688-4.842-7.214zm16.79.094l.05.139c-1.305 2.476-2.941 4.867-4.71 7.111-.798.095-1.541-.223-2.334-.272l-.797-.094c-.091-2.708-.14-5.095.001-7.803 2.661.05 5.322.325 7.79.919zm1.536.365c2.01.459 3.917 1.102 5.689 1.971-1.493 1.694-3.404 3.166-5.173 4.405-1.071.64-2.147 1.335-3.267 1.882l-2-.871.137-.318c1.681-2.247 3.173-4.544 4.477-6.977zm12.187 3.578c-.098.143-.378.089-.467-.043-1.17-.732-2.429-1.33-3.55-2.062 1.494-1.787 2.941-3.575 4.061-5.555h-1.451c-1.16 1.703-2.376 3.49-3.914 5-2.055-.825-3.92-1.558-6.019-2.112l-.233-.175c.326-.927.931-1.797 1.116-2.715h-1.259l-1.259 2.478c-2.749-.596-5.783-.92-8.582-1.101-.141-.412.044-1.009-.141-1.377h-1.213c-.096.552.14.967-.14 1.425-2.893.133-5.691.457-8.394 1.013l-1.265-2.438c-.461 0-.98-.088-1.303.049l1.164 2.707-.139.134a58.86 58.86 0 0 0-6.158 2.158l-.185-.094c-1.31-1.422-2.57-2.974-3.597-4.534-.231-.785-1.165-.326-1.678-.418 1.115 2.02 2.613 3.807 4.103 5.644-1.259.736-2.514 1.557-3.826 2.16a33.642 33.642 0 0 1-7.369-7.753c-.56-.09-.93-.049-1.494 0 3.36 5.229 8.586 9.814 14.044 12.52 0 0 0-.04.05-.04.04 0 .133.084.04.132 3.688 1.79 7.61 3.073 11.758 3.626 14.323 1.878 27.994-4.218 35.92-16.238a7.372 7.372 0 0 0-1.49-.002c-1.957 2.8-4.43 5.506-7.13 7.61z"/></g><g><path fill="#ffcc01" d="M85.047 28.676c2.117 5.731 1.613 12.856-1.477 17.374-1.29 1.658-3.113 3.01-5.157 3.86l-.208.089c-.542.284-1.354.535-1.836.628-6.876 1.91-14.01.67-18.745-3.481-3.685-3.587-4.65-9.578-3.226-16.133.68-3.454 2.846-6.52 5.821-8.037 5.96-3.32 14.809-3.056 20.562.597 1.984 1.342 3.528 3.169 4.266 5.103zm-8.779 8.733c.005-.58.002-1.055-.01-2.06a71.522 71.522 0 0 1-.005-2.33l-.006-.13a21.86 21.86 0 0 1-.064-.711 51.873 51.873 0 0 0-.033-.394c-.118-1.352-.319-2.194-.858-3.005-1.257-1.645-3.005-2.19-5.543-2.19-2.697.207-4.497 1.027-5.271 3.024-.617 2.002-.781 4.101-.699 7.01.017.593.038 1.091.085 2.105l.031.687c.043.393.055.49.075.65.275 2.178.785 3.466 2.171 4.435l.087.054c2.048 1.138 4.893 1.333 6.997.408 1.37-.482 2.393-1.828 2.725-3.364l.008-.04c.21-1.195.297-2.5.31-4.15z"/></g><g><path fill="#ffcc01" d="M17.696 45.2h-.11c-1.339.002-2.013-.019-2.769-.111l-.88-.109.05-17.295.57-.811 4.157-.04c.043-2.646.044-4.306-.017-5.807L2.081 20.98l-1.929.033a221.04 221.04 0 0 0 0 5.783l.61.007c.74.008 1.075.013 1.493.025.591.018 1.115.048 1.624.095l.908.085v.911l-.003 15.656-.109 1.551-4.585.094a98.082 98.082 0 0 0 0 5.584h18.606v-5.6a76.117 76.117 0 0 0-1-.004z"/></g><g><path fill="#ffcc01" d="M43.407 45.016c-.2.18-.377.29-.69.459l-.1.054-.111.03c-4.909 1.337-9.98.17-13.357-3.357-.191-.236-.314-.423-.563-.834-.06-.1-.111-.183-.156-.253l-4.807.033c-.083 3.564-.092 6.836-.009 9.647l5.07-.033.116-2.74 1.354.623c.468.216.847.412 1.64.838.415.224.571.307.708.383 5.013 2.087 10.846 2.207 15.039.046 3.137-1.72 4.805-5.032 4.343-8.622-.435-3.318-3.711-6.639-7.306-7.553l-11.293-3.258-.167-.065-.946-.469-.093-.08c-.663-.564-1.007-1.317-.853-2.174l.031-.176.09-.154c.773-1.315 2.003-1.67 3.876-1.59.199.01.37.02.69.041.444.03.601.04.805.046l.112.009c4.035.568 7.028 1.915 8.927 4.532l.986.003c1.503.007 2.226.007 3.097-.003.374-.004.73-.01 1.075-.019.02-1.293.017-2.619-.006-4.164-.011-.79-.02-1.287-.054-2.915a648.27 648.27 0 0 1-.036-1.832 107.574 107.574 0 0 0-4.798.03c.006.53-.038.909-.203 1.3l-.426 1.01-.967-.518-2.06-1.106c-5.332-2.237-11.984-2.033-16.009.856-2.518 1.823-3.548 5.231-2.774 8.635.473 2.58 2.97 4.906 6.16 6.108 1.817.641 3.342 1.112 6.661 2.087l.714.21c2.372.697 3.8 1.135 5.394 1.678.906.406 1.605 1.125 1.475 2.108-.024.463-.243.846-.579 1.149z"/></g></g></svg>