<svg xmlns="http://www.w3.org/2000/svg" width="90" height="70" viewBox="0 0 90 70">
  <defs>
    <style>
      .cls-1 {
        isolation: isolate;
      }

      .cls-2 {
        fill: #ffcc01;
      }

      .cls-3, .cls-4 {
        fill: none;
        stroke: #ffcc01;
      }

      .cls-3 {
        stroke-width: 2px;
      }
    </style>
  </defs>
  <title>icon-3</title>
  <g id="Слой_2" data-name="Слой 2">
    <g id="Слой_1-2" data-name="Слой 1">
      <g id="Mane-page">
        <g id="Mane-page-04">
          <g id="_12" data-name="12">
            <g id="Group-3">
              <g id="СНиП" class="cls-1">
                <g class="cls-1">
                  <path class="cls-2" d="M22,25.288a6.573,6.573,0,0,1-2.664-.513,5.709,5.709,0,0,1-1.98-1.413,6.255,6.255,0,0,1-1.242-2.115,7.762,7.762,0,0,1-.432-2.619,8.058,8.058,0,0,1,.432-2.664,6.4,6.4,0,0,1,1.242-2.16,5.7,5.7,0,0,1,1.98-1.44A6.891,6.891,0,0,1,24,12.148a5.435,5.435,0,0,1,1.7.891,4.815,4.815,0,0,1,1.233,1.449,5.18,5.18,0,0,1,.612,1.98H24.81a2.308,2.308,0,0,0-.324-.891,2.841,2.841,0,0,0-.63-.711A2.905,2.905,0,0,0,23,14.389a2.938,2.938,0,0,0-1-.171,3.3,3.3,0,0,0-1.62.369,3.059,3.059,0,0,0-1.08.99,4.338,4.338,0,0,0-.6,1.413,7.039,7.039,0,0,0-.189,1.638A6.542,6.542,0,0,0,18.7,20.2a4.256,4.256,0,0,0,.6,1.377,3.091,3.091,0,0,0,1.08.981A3.3,3.3,0,0,0,22,22.93a2.615,2.615,0,0,0,2.025-.792,3.663,3.663,0,0,0,.891-2.088h2.736a6.474,6.474,0,0,1-.558,2.187,5.245,5.245,0,0,1-1.188,1.647,5.05,5.05,0,0,1-1.728,1.044A6.331,6.331,0,0,1,22,25.288Z"/>
                  <path class="cls-2" d="M30.57,12.148H33.4V17.08h5.2V12.148h2.826V25H38.6V19.456H33.4V25H30.57Z"/>
                  <path class="cls-2" d="M44.628,15.694h2.448v6.3l3.51-6.3h2.9V25H51.035V18.7L47.525,25h-2.9Z"/>
                </g>
                <g class="cls-1">
                  <path class="cls-2" d="M56.718,12.148H67.41V25H64.584V14.524h-5.04V25H56.718Z"/>
                </g>
              </g>
              <path id="Rectangle" class="cls-2" d="M16,35H28a1,1,0,0,1,1,1h0a1,1,0,0,1-1,1H16a1,1,0,0,1-1-1h0A1,1,0,0,1,16,35Z"/>
              <path id="Rectangle-Copy-22" class="cls-2" d="M16,56H28a1,1,0,0,1,1,1h0a1,1,0,0,1-1,1H16a1,1,0,0,1-1-1h0A1,1,0,0,1,16,56Z"/>
              <path id="Rectangle-Copy-16" class="cls-2" d="M56,42H71a1,1,0,0,1,1,1h0a1,1,0,0,1-1,1H56a1,1,0,0,1-1-1h0A1,1,0,0,1,56,42Z"/>
              <path id="Rectangle-Copy-12" class="cls-2" d="M36,35H78a1,1,0,0,1,1,1h0a1,1,0,0,1-1,1H36a1,1,0,0,1-1-1h0A1,1,0,0,1,36,35Z"/>
              <path id="Rectangle-Copy-13" class="cls-2" d="M16,42H48a1,1,0,0,1,1,1h0a1,1,0,0,1-1,1H16a1,1,0,0,1-1-1h0A1,1,0,0,1,16,42Z"/>
              <path id="Rectangle-Copy-17" class="cls-2" d="M16,49H54a1,1,0,0,1,1,1h0a1,1,0,0,1-1,1H16a1,1,0,0,1-1-1h0A1,1,0,0,1,16,49Z"/>
              <rect id="Rectangle-2" data-name="Rectangle" class="cls-3" x="1" y="1" width="88" height="68" rx="4" ry="4"/>
              <path id="Path" class="cls-2" d="M79.246,54.111a26.019,26.019,0,0,0-5.426,3.408,4.61,4.61,0,0,0-.7-2.126,1.985,1.985,0,0,0-1.6-.87c-1.661-.024-3.54,2.093-4.257,3.014a1.249,1.249,0,0,0,1.971,1.536,9.373,9.373,0,0,1,1.982-1.925,6.583,6.583,0,0,1,.163.976c.1.848.222,1.9,1.228,2.3a1.647,1.647,0,0,0,.616.119,3.529,3.529,0,0,0,2.082-1.014,23.866,23.866,0,0,1,4.948-3.135,1.25,1.25,0,1,0-1.008-2.287Z"/>
              <circle id="Oval" class="cls-4" cx="83" cy="7" r="2"/>
              <circle id="Oval-Copy" class="cls-4" cx="83" cy="63" r="2"/>
              <circle id="Oval-Copy-3" class="cls-4" cx="7" cy="7" r="2"/>
              <circle id="Oval-Copy-2" class="cls-4" cx="7" cy="63" r="2"/>
            </g>
          </g>
        </g>
      </g>
    </g>
  </g>
</svg>
