<?xml version="1.0" encoding="UTF-8"?>
<svg width="30px" height="17px" viewBox="0 0 30 17" version="1.1" xmlns="http://www.w3.org/2000/svg" xmlns:xlink="http://www.w3.org/1999/xlink">
    <!-- Generator: Sketch 54.1 (76490) - https://sketchapp.com -->
    <title>Path Copy 6</title>
    <desc>Created with Sketch.</desc>
    <g id="Home-page" stroke="none" stroke-width="1" fill="none" fill-rule="evenodd">
        <g id="Home-page-04-03" transform="translate(-495.000000, -1124.000000)" fill="#232C3F" fill-rule="nonzero">
            <g id="2" transform="translate(0.000000, 650.000000)">
                <path d="M503.241665,488.526925 C502.957294,488.24345 502.497648,488.24345 502.213278,488.526925 C501.928907,488.8104 501.928907,489.2686 502.213278,489.552075 L509.470897,496.78685 C509.606173,496.923875 509.790904,497 509.984363,497 C509.989454,497 509.994545,496.9971 509.999636,496.9971 C510.004727,496.9971 510.009091,497 510.014909,497 C510.257097,497 510.460738,496.874575 510.593104,496.693325 L517.786722,489.52235 C518.071093,489.238875 518.071093,488.780675 517.786722,488.4972 C517.502352,488.213725 517.042706,488.213725 516.758335,488.4972 L510.742199,494.4944 L510.742199,468.725 C510.742199,468.324075 510.4171,468 510.014909,468 C509.612718,468 509.28762,468.324075 509.28762,468.725 L509.28762,494.5553 L503.241665,488.526925 Z" id="Path-Copy-6" transform="translate(510.000000, 482.500000) rotate(-90.000000) translate(-510.000000, -482.500000) "></path>
            </g>
        </g>
    </g>
</svg>