<?xml version="1.0" encoding="UTF-8"?>
<svg width="90px" height="26px" viewBox="0 0 90 26" version="1.1" xmlns="http://www.w3.org/2000/svg" xmlns:xlink="http://www.w3.org/1999/xlink">
    <!-- Generator: Sketch 54.1 (76490) - https://sketchapp.com -->
    <title>Shape</title>
    <desc>Created with Sketch.</desc>
    <g id="Home-page" stroke="none" stroke-width="1" fill="none" fill-rule="evenodd">
        <g id="Home-page-04-03" transform="translate(-640.000000, -2457.000000)" fill="#FFCC01" fill-rule="nonzero">
            <g id="3" transform="translate(210.000000, 2075.000000)">
                <path d="M485.462104,430.703099 C482.085512,432.874994 478.640612,434.654676 474.956629,436.030367 C489.859799,404.570864 498.812224,370.770206 462.88236,350.024793 C462.501821,349.805075 461.722878,351.110746 462.10084,351.378511 C495.174028,374.808938 487.558488,402.719335 473.095794,433.707711 C472.744826,432.28373 472.485722,430.845615 472.31495,429.21316 C472.139466,427.535948 469.586117,427.453501 469.634405,429.21316 L469.892331,438.658078 C469.915885,439.522596 470.730884,440.18924 471.589459,439.951321 C477.1119,438.421336 482.052535,436.216462 486.741134,432.895017 C488.05314,431.965719 486.855375,429.807958 485.462104,430.703099 Z" id="Shape" transform="translate(475.000000, 395.000000) scale(-1, 1) rotate(-270.000000) translate(-475.000000, -395.000000) "></path>
            </g>
        </g>
    </g>
</svg>