<svg xmlns="http://www.w3.org/2000/svg" width="10" height="22" viewBox="0 0 10 22"><g><g><path fill="#ffcc01" d="M9.327 6.352a.674.674 0 0 0-.686.674v9.95c0 1.017-.367 1.849-1.077 2.559-.71.71-1.554 1.077-2.582 1.077a3.502 3.502 0 0 1-2.57-1.065 3.502 3.502 0 0 1-1.066-2.57V3.843c0-.673.248-1.257.723-1.738.48-.486 1.064-.746 1.762-.746s1.282.26 1.762.746c.475.48.723 1.065.723 1.738V15.02c0 .697-.539 1.236-1.236 1.236a1.238 1.238 0 0 1-1.225-1.236V9.204a.664.664 0 0 0-.673-.673.664.664 0 0 0-.673.673v5.815c0 .722.245 1.334.747 1.836.502.501 1.101.746 1.824.746.722 0 1.328-.25 1.836-.746.496-.484.746-1.09.746-1.836V3.843c0-1.052-.382-1.955-1.126-2.705C5.786.382 4.884 0 3.831 0 2.778 0 1.876.382 1.126 1.138.383 1.888 0 2.791 0 3.843v13.134c0 1.383.49 2.558 1.457 3.525.966.967 2.142 1.456 3.525 1.456s2.582-.465 3.561-1.444c.98-.979 1.457-2.178 1.457-3.537V7.026a.664.664 0 0 0-.673-.674z"/></g></g></svg>