<?xml version="1.0" encoding="UTF-8"?>
<svg width="18px" height="18px" viewBox="0 0 18 18" version="1.1" xmlns="http://www.w3.org/2000/svg" xmlns:xlink="http://www.w3.org/1999/xlink">
    <!-- Generator: Sketch 54.1 (76490) - https://sketchapp.com -->
    <title>Combined Shape</title>
    <desc>Created with Sketch.</desc>
    <g id="Mane-page" stroke="none" stroke-width="1" fill="none" fill-rule="evenodd">
        <g id="Mane-page-04" transform="translate(-1101.000000, -6674.000000)" fill="#36435F">
            <g id="10" transform="translate(210.000000, 6449.000000)">
                <path d="M898.763456,232.763456 L898.763456,224.263456 C898.763456,223.435029 899.435029,222.763456 900.263456,222.763456 C901.091883,222.763456 901.763456,223.435029 901.763456,224.263456 L901.763456,232.763456 L910.263456,232.763456 C911.091883,232.763456 911.763456,233.435029 911.763456,234.263456 C911.763456,235.091883 911.091883,235.763456 910.263456,235.763456 L901.763456,235.763456 L901.763456,244.263456 C901.763456,245.091883 901.091883,245.763456 900.263456,245.763456 C899.435029,245.763456 898.763456,245.091883 898.763456,244.263456 L898.763456,235.763456 L890.263456,235.763456 C889.435029,235.763456 888.763456,235.091883 888.763456,234.263456 C888.763456,233.435029 889.435029,232.763456 890.263456,232.763456 L898.763456,232.763456 Z" id="Combined-Shape" transform="translate(900.263456, 234.263456) rotate(-315.000000) translate(-900.263456, -234.263456) "></path>
            </g>
        </g>
    </g>
</svg>