<?xml version="1.0" encoding="UTF-8"?>
<svg width="10px" height="10px" viewBox="0 0 10 10" version="1.1" xmlns="http://www.w3.org/2000/svg" xmlns:xlink="http://www.w3.org/1999/xlink">
    <!-- Generator: Sketch 54.1 (76490) - https://sketchapp.com -->
    <title>Combined Shape Copy 2</title>
    <desc>Created with Sketch.</desc>
    <g id="Mane-page" stroke="none" stroke-width="1" fill="none" fill-rule="evenodd">
        <g id="Mane-page-04" transform="translate(-1078.000000, -9141.000000)" fill="#36435F">
            <g id="13" transform="translate(0.000000, 8885.000000)">
                <path d="M1082.34456,260.344562 L1082.34456,255.540214 C1082.34456,255.071973 1082.72415,254.692388 1083.19239,254.692388 C1083.66063,254.692388 1084.04021,255.071973 1084.04021,255.540214 L1084.04021,260.344562 L1088.84456,260.344562 C1089.3128,260.344562 1089.69239,260.724147 1089.69239,261.192388 C1089.69239,261.66063 1089.3128,262.040214 1088.84456,262.040214 L1084.04021,262.040214 L1084.04021,266.844562 C1084.04021,267.312803 1083.66063,267.692388 1083.19239,267.692388 C1082.72415,267.692388 1082.34456,267.312803 1082.34456,266.844562 L1082.34456,262.040214 L1077.54021,262.040214 C1077.07197,262.040214 1076.69239,261.66063 1076.69239,261.192388 C1076.69239,260.724147 1077.07197,260.344562 1077.54021,260.344562 L1082.34456,260.344562 Z" id="Combined-Shape-Copy-2" transform="translate(1083.192388, 261.192388) rotate(-315.000000) translate(-1083.192388, -261.192388) "></path>
            </g>
        </g>
    </g>
</svg>