<svg xmlns="http://www.w3.org/2000/svg" width="28" height="16" viewBox="0 0 28 16"><g><g><path fill="#d8232a" d="M23.42 0l4.59 8-4.59 8H0V0zm-2.46 6.223c0 .664-.425 1.003-1.276 1.018h-1.25V5.177h1.182c.465 0 .805.082 1.021.244.216.164.324.43.324.802m-9.625 2.694l1.705-2.705.107-.186v2.891h-1.812m8.651-.483c.78.011 1.17.392 1.17 1.142 0 .333-.113.595-.337.784-.224.19-.535.284-.934.284h-1.451v-2.21h1.552M5.171 5.177c.664 0 1.169.214 1.513.643.345.428.518 1.058.518 1.889v.432c-.008.802-.186 1.417-.534 1.848-.35.43-.854.645-1.514.645H4.34V5.178h.832m3.741 2.542c0-.76-.16-1.44-.478-2.039a3.39 3.39 0 0 0-1.33-1.383C6.534 3.972 5.89 3.81 5.17 3.81h-2.52V12h2.537c.716-.004 1.36-.169 1.93-.495a3.364 3.364 0 0 0 1.324-1.378c.313-.593.47-1.27.47-2.03zm6.79 1.198h-.929V3.81h-1.642L9.716 9.204l.073 1.024h3.359V12h1.625v-1.772h.928zm7.122.676c0-.462-.121-.852-.362-1.17a1.726 1.726 0 0 0-.992-.636c.367-.143.654-.367.86-.672.205-.306.308-.66.308-1.06 0-.736-.256-1.293-.769-1.674-.513-.38-1.265-.571-2.257-.571h-2.864V12h3.178c.928-.007 1.644-.214 2.145-.619.502-.405.753-1 .753-1.788z"/></g></g></svg>