<svg xmlns="http://www.w3.org/2000/svg" width="30" height="30" viewBox="0 0 30 30"><g><g><path fill="#232c3f" d="M28.232 11.418a.878.878 0 0 1-.878.877h-8.838V8.789h8.838c.484 0 .878.393.878.876zm-1.758 15.945a.88.88 0 0 1-.877.88h-7.081v-14.18h7.958zm-9.716.88h-3.516V8.788h3.516zm-5.284-15.948H2.636a.878.878 0 0 1-.878-.877V9.665c0-.483.394-.876.878-.876h8.838zm0 15.947h-7.08a.88.88 0 0 1-.878-.879v-13.3h7.958zM9.727 1.758c1.801 0 2.313 1.08 3.66 4.496l.307.777H9.727A2.64 2.64 0 0 1 7.09 4.395a2.64 2.64 0 0 1 2.637-2.637zm6.886 4.496c1.347-3.416 1.859-4.496 3.66-4.496a2.64 2.64 0 0 1 2.637 2.637 2.64 2.64 0 0 1-2.637 2.636h-3.967c.108-.27.21-.53.307-.777zm10.75.777h-3.576a4.372 4.372 0 0 0 .881-2.636A4.4 4.4 0 0 0 20.273 0c-1.46 0-2.536.523-3.387 1.646-.712.94-1.233 2.25-1.886 3.908-.653-1.657-1.174-2.969-1.886-3.908C12.263.523 11.186 0 9.727 0a4.4 4.4 0 0 0-4.395 4.395c0 .988.328 1.901.881 2.636H2.637A2.64 2.64 0 0 0 0 9.668v1.758a2.64 2.64 0 0 0 1.758 2.485v13.452A2.64 2.64 0 0 0 4.395 30h21.21a2.64 2.64 0 0 0 2.637-2.637V13.911A2.64 2.64 0 0 0 30 11.426V9.668a2.64 2.64 0 0 0-2.637-2.637z"/></g></g></svg>