<svg xmlns="http://www.w3.org/2000/svg" width="512" height="512" viewBox="0 0 512 512">
  <title>instagram</title>
  <g id="Слой_2" data-name="Слой 2">
    <g id="Capa_1" data-name="Capa 1">
      <path d="M352,0H160A160.017,160.017,0,0,0,0,160V352A160.017,160.017,0,0,0,160,512H352A160.017,160.017,0,0,0,512,352V160A160.017,160.017,0,0,0,352,0ZM464,352A112.123,112.123,0,0,1,352,464H160A112.123,112.123,0,0,1,48,352V160A112.123,112.123,0,0,1,160,48H352A112.123,112.123,0,0,1,464,160Z"/>
      <path d="M256,128A128,128,0,1,0,384,256,128.006,128.006,0,0,0,256,128Zm0,208a80,80,0,1,1,80-80A80.111,80.111,0,0,1,256,336Z"/>
      <circle cx="393.6" cy="118.4" r="17.056"/>
    </g>
  </g>
</svg>
