<svg xmlns="http://www.w3.org/2000/svg" width="15" height="15" viewBox="0 0 15 15"><g><g><path fill="#ffcc01" d="M.94 4.975a2.948 2.948 0 0 1-.56-3.317.197.197 0 0 1 .318-.055l1.785 1.808c.262.267.72.267.982 0a.705.705 0 0 0 .205-.498.705.705 0 0 0-.205-.498L1.681.607A.204.204 0 0 1 1.626.43a.2.2 0 0 1 .11-.147A2.87 2.87 0 0 1 2.978 0c.767 0 1.488.303 2.03.852a2.953 2.953 0 0 1 .703 2.952l1.695 1.72-1.857 1.88-1.695-1.716A2.834 2.834 0 0 1 .94 4.975zm13.12 5.05c.86.87 1.084 2.203.56 3.316a.197.197 0 0 1-.318.055l-1.785-1.807a.703.703 0 0 0-.982 0 .704.704 0 0 0-.204.498c0 .188.072.364.204.497l1.784 1.809a.203.203 0 0 1-.055.322A2.872 2.872 0 0 1 12.02 15a2.834 2.834 0 0 1-2.03-.852 2.955 2.955 0 0 1-.703-2.952L7.413 9.295 9.27 7.412l1.875 1.9c.285-.092.582-.14.884-.14.767 0 1.488.303 2.03.853zm-2.964-5.313L6.738 9.128a.862.862 0 0 0-.126-.168l-.733-.742a.858.858 0 0 0-.167-.129l4.358-4.416-.092-.093s-.246-.277-.077-.507c.437-.595.117-2.138-2.464-2.594C7.082.415 7.019.339 7.36.22c.851-.297 2.64-.358 5.317 2.355 0 0 1.078 1.265.94 1.801-.032.123.226.492.38.709l.188-.19a.474.474 0 0 1 .675 0 .49.49 0 0 1 0 .685L13.736 6.72a.473.473 0 0 1-.675 0 .486.486 0 0 1 0-.684l.143-.144-.006-.003c-.26-.19-1.075-1.004-1.364-.857-.256.13-.566-.146-.566-.146zM6.32 9.257c.161.164.17.44.022.614l-4.343 4.91a.378.378 0 0 1-.564.02l-1.32-1.336a.39.39 0 0 1 .022-.572l4.843-4.4a.45.45 0 0 1 .607.022z"/></g></g></svg>