<svg xmlns="http://www.w3.org/2000/svg" width="57.334" height="95.482" viewBox="0 0 57.334 95.482">
  <title>odnoklassniki</title>
  <g id="Слой_2" data-name="Слой 2">
    <g id="Capa_1" data-name="Capa 1">
      <g>
        <path d="M23.967,67.254c-7.4-.772-14.076-2.595-19.79-7.064-.709-.556-1.441-1.092-2.088-1.713-2.5-2.4-2.753-5.153-.774-7.988C3.008,48.063,5.85,47.414,8.8,48.807a11.568,11.568,0,0,1,1.639.969,32.447,32.447,0,0,0,35.967.329,9.751,9.751,0,0,1,3.5-1.812,5.5,5.5,0,0,1,6.3,2.514c1.564,2.549,1.544,5.037-.383,7.016a29.052,29.052,0,0,1-10.461,6.761,49.1,49.1,0,0,1-11.875,2.661c.611.665.9.992,1.281,1.376,5.5,5.524,11.02,11.025,16.5,16.566A5.457,5.457,0,0,1,52.5,91.612a6.514,6.514,0,0,1-6.107,3.81,5.949,5.949,0,0,1-3.865-1.977c-4.149-4.175-8.376-8.273-12.441-12.527-1.183-1.237-1.752-1-2.8.071-4.174,4.3-8.416,8.528-12.683,12.735a5.318,5.318,0,0,1-6.418,1.15A6.493,6.493,0,0,1,4.444,88.9a5.984,5.984,0,0,1,2.011-4.014q8.162-8.15,16.3-16.322C23.109,68.2,23.444,67.813,23.967,67.254Z"/>
        <path d="M28.476,48.329a24.165,24.165,0,1,1,24.31-23.851A24.179,24.179,0,0,1,28.476,48.329Zm12-24.186A11.821,11.821,0,1,0,28.731,35.994,11.77,11.77,0,0,0,40.477,24.143Z"/>
      </g>
    </g>
  </g>
</svg>
