<svg xmlns="http://www.w3.org/2000/svg" width="55" height="71" viewBox="0 0 55 71"><g><g><path fill="#ffcc01" d="M42.568 29.426c.392.762.23 1.649-.477 2.64-.68.952-1.618 1.456-2.713 1.456-1.487 0-3.216-.939-5.147-2.793-3.468.725-7.517 2.018-10.79 3.45-1.022 2.167-2 3.914-2.913 5.195-1.25 1.756-2.33 2.575-3.4 2.575-.425 0-.833-.138-1.182-.398-1.272-.955-1.443-2.017-1.362-2.74.222-1.99 2.682-4.073 7.315-6.195 1.838-4.028 3.587-8.992 4.63-13.139-1.22-2.654-2.406-6.099-1.542-8.119.303-.708.682-1.25 1.386-1.485.28-.093.984-.21 1.242-.21.616 0 1.157.793 1.541 1.282.36.46 1.178 1.434-.456 8.314 1.648 3.402 3.982 6.868 6.219 9.242 1.602-.29 2.98-.438 4.104-.438 1.914 0 3.074.448 3.545 1.363zm-22.187 6.26c-2.612 1.468-3.677 2.675-3.753 3.354-.012.111-.045.407.527.846.182-.057 1.246-.543 3.226-4.2zm6.914-19.885c1.16-2.585-.065-3.948-.118-3.93m5.414 17.118c-1.65-1.917-3.3-4.31-4.672-6.776a87.133 87.133 0 0 1-3.268 9.245 60.88 60.88 0 0 1 7.94-2.47zm8.108 1.377c-.15-.08-.35-.24-1.436-.24-.618 0-1.392.026-2.214.131.996.767 1.24 1.154 1.891 1.154.286 0 1.102-.012 1.479-.539.182-.255.253-.42.28-.506zm-5.135 23.319h7.703v1.52h-5.664v3.877h5.147v1.37h-5.147V66h-2.039zm-3.291 3.665c.255.696.384 1.412.384 2.148 0 1.013-.11 1.88-.327 2.598-.217.719-.492 1.32-.827 1.805-.335.486-.71.867-1.128 1.146a5.604 5.604 0 0 1-1.212.627c-.39.14-.746.228-1.069.267-.324.04-.563.059-.719.059h-4.661V53.685h3.71c1.034 0 1.945.165 2.73.492.787.328 1.438.767 1.956 1.312a5.422 5.422 0 0 1 1.163 1.861zM30.55 59.45c0-.512-.061-1.02-.184-1.52a3.253 3.253 0 0 0-.71-1.362c-.35-.407-.827-.736-1.429-.986-.6-.251-1.38-.377-2.339-.377h-1.17v9.324h1.989c1.36 0 2.34-.433 2.94-1.302.602-.868.903-2.128.903-3.777zm-10.568-3.55c.25.474.377 1.005.377 1.596 0 .624-.107 1.189-.318 1.696a3.56 3.56 0 0 1-.886 1.278 3.993 3.993 0 0 1-1.37.802 5.272 5.272 0 0 1-1.771.284h-1.488V66h-2.005V53.685h3.542c.523 0 1.041.083 1.553.25.512.167.972.418 1.379.752.407.335.737.737.987 1.211zm-1.564 1.594c0-.2-.028-.431-.083-.693a2.001 2.001 0 0 0-.342-.751 2.025 2.025 0 0 0-.728-.602c-.313-.161-.724-.242-1.237-.242h-1.503v4.88h1.838c.245 0 .488-.043.728-.126.24-.084.46-.22.66-.41.2-.19.36-.453.484-.793.122-.34.183-.76.183-1.263zM55 17.084v51.36c0 1.023-1.03 2.02-2.246 2.335-.062.016-.12.039-.184.051-.19.038-.385.059-.58.059H3.01c-.195 0-.39-.02-.58-.059-.064-.012-.122-.035-.184-.051C1.03 70.465 0 69.467 0 68.444V3.576C0 1.12 1.56 0 3.01 0h35.472c.605 0 1.196.246 1.623.672l.942.943 12.338 12.338.943.942c.56.56.672 1.252.672 2.19zM40.333 4.357v10.31h10.31zM51.99 68.444c.086 0 .165-.031.242-.06a.561.561 0 0 0 .324-.505V50.11H2.444V67.88a.56.56 0 0 0 .324.506c.077.028.156.06.242.06zm.566-20.777V17.084l-.002-.044c-.154.04-.311.071-.476.071h-14.19V2.922c0-.165.031-.324.072-.478H3.01c-.525 0-.566.867-.566 1.132v44.09z"/></g></g></svg>