<svg xmlns="http://www.w3.org/2000/svg" xmlns:xlink="http://www.w3.org/1999/xlink" width="16" height="16" viewBox="0 0 16 16"><defs><path id="geada" d="M1129.992 54.627a.774.774 0 0 1-.237.678l-2.253 2.237c-.101.113-.234.21-.398.288-.163.08-.324.13-.482.153l-.102.009c-.056.005-.13.008-.22.008-.215 0-.562-.037-1.042-.11-.48-.074-1.067-.254-1.761-.543-.695-.288-1.482-.72-2.363-1.296-.881-.576-1.818-1.367-2.812-2.373-.79-.78-1.445-1.525-1.965-2.237-.52-.712-.937-1.37-1.253-1.975a10.638 10.638 0 0 1-.712-1.644 8.727 8.727 0 0 1-.321-1.271 4.201 4.201 0 0 1-.068-.84c.011-.203.017-.316.017-.338.022-.158.073-.32.152-.483a1.27 1.27 0 0 1 .288-.398l2.253-2.255a.746.746 0 0 1 .542-.237c.147 0 .277.042.39.127.112.085.208.19.287.314l1.813 3.44c.101.181.13.379.085.594a1.057 1.057 0 0 1-.288.542l-.83.83a.283.283 0 0 0-.06.11.418.418 0 0 0-.025.128c.045.237.147.508.305.813.135.271.344.602.627.992.282.39.683.839 1.202 1.347.508.52.96.924 1.355 1.212.395.288.726.5.991.636.265.135.469.217.61.245l.211.043c.023 0 .06-.009.11-.026a.283.283 0 0 0 .11-.059l.966-.983c.204-.18.44-.271.712-.271.192 0 .344.034.457.102h.017l3.269 1.932c.237.147.378.333.423.56z"/></defs><g><g transform="translate(-1114 -42)"><use fill="#1771c3" xlink:href="#geada"/></g></g></svg>