<svg xmlns="http://www.w3.org/2000/svg" width="31" height="24" viewBox="0 0 31 24"><g><g><path fill="#36435f" d="M2.995 23.814c-.26.183-.916.344-1.3-.097l-.707-.922c-.342-.6.073-1.155.34-1.386 1.276-1.096 2.203-1.943 2.781-2.543 1.135-1.237 1.974-2.474 2.527-3.708.127-.282-.196-.461-.364-.518C2.09 13.22 0 10.716 0 7.13 0 5.017.677 3.3 2.03 1.98 3.386.66 5.082 0 7.12 0c1.815 0 3.424.858 4.825 2.575C13.315 4.192 14 5.942 14 7.824c0 5.514-3.668 10.844-11.005 15.99zm17 0c-.261.183-.916.344-1.3-.097l-.707-.922c-.342-.6.072-1.155.34-1.386 1.275-1.096 2.203-1.943 2.781-2.543 1.135-1.237 1.973-2.474 2.527-3.708.127-.282-.196-.461-.364-.518C19.09 13.22 17 10.716 17 7.13c0-2.113.677-3.83 2.03-5.15C20.386.66 22.082 0 24.12 0c1.815 0 3.424.858 4.825 2.575C30.315 4.192 31 5.942 31 7.824c0 5.514-3.668 10.844-11.005 15.99z"/></g></g></svg>