<svg xmlns="http://www.w3.org/2000/svg" width="60" height="46" viewBox="0 0 60 46"><g><g><path fill="#36435f" d="M6.008 45.643c-.524.351-1.838.66-2.607-.186l-1.418-1.766c-.686-1.15.145-2.214.682-2.656 2.558-2.101 4.418-3.726 5.578-4.875 2.276-2.37 3.958-4.742 5.069-7.107.254-.541-.395-.884-.731-.993C4.194 25.338 0 20.54 0 13.666c0-4.05 1.358-7.34 4.074-9.87C6.79 1.265 10.193 0 14.28 0c3.642 0 6.87 1.645 9.68 4.935 2.749 3.1 4.122 6.454 4.122 10.06 0 10.57-7.358 20.785-22.075 30.648zm31.917 0c-.524.351-1.838.66-2.607-.186L33.9 43.691c-.687-1.15.144-2.214.682-2.656C37.14 38.934 39 37.309 40.16 36.16c2.276-2.37 3.958-4.742 5.069-7.107.254-.541-.394-.884-.731-.993-8.386-2.722-12.58-7.52-12.58-14.394 0-4.05 1.358-7.34 4.073-9.87C38.708 1.265 42.11 0 46.198 0c3.642 0 6.87 1.645 9.68 4.935C58.628 8.035 60 11.39 60 14.995c0 10.57-7.358 20.785-22.075 30.648z"/></g></g></svg>