<svg xmlns="http://www.w3.org/2000/svg" width="11" height="15" viewBox="0 0 11 15"><g><g><path fill="#ffcc01" d="M3.439 6.865V1.506h2.346c1.047 0 1.871.208 2.47.625.6.416.9 1.083.9 2.001 0 .918-.3 1.603-.9 2.055-.599.452-1.423.678-2.47.678zM0 8.372h1.617v2.173H0v1.42h1.617V15h1.822v-3.034h3.667v-1.42H3.439V8.371h2.3a7.93 7.93 0 0 0 2.073-.259 4.866 4.866 0 0 0 1.662-.785c.47-.352.843-.793 1.116-1.324.273-.53.41-1.155.41-1.872 0-.717-.129-1.334-.387-1.85A3.534 3.534 0 0 0 9.543 1C9.086.664 8.54.412 7.902.247A8.453 8.453 0 0 0 5.785 0H1.617v6.865H0z"/></g></g></svg>