<svg xmlns="http://www.w3.org/2000/svg" width="512" height="416" viewBox="0 0 512 416">
  <title>twitter</title>
  <g id="Слой_2" data-name="Слой 2">
    <g id="Capa_1" data-name="Capa 1">
      <path d="M512,49.248a218.842,218.842,0,0,1-60.48,16.576A104.375,104.375,0,0,0,497.7,7.808a209.767,209.767,0,0,1-66.56,25.408,104.957,104.957,0,0,0-181.568,71.776A108.081,108.081,0,0,0,252,128.928C164.736,124.672,87.52,82.848,35.648,19.136A104.992,104.992,0,0,0,67.9,159.424,103.659,103.659,0,0,1,20.48,146.5v1.152a105.447,105.447,0,0,0,84.1,103.136,104.763,104.763,0,0,1-27.52,3.456,92.807,92.807,0,0,1-19.872-1.792c13.6,41.568,52.192,72.128,98.08,73.12A210.907,210.907,0,0,1,25.12,370.336,196.6,196.6,0,0,1,0,368.9,295.5,295.5,0,0,0,161.024,416c193.152,0,298.752-160,298.752-298.688,0-4.64-.16-9.12-.384-13.568A209.4,209.4,0,0,0,512,49.248Z"/>
    </g>
  </g>
</svg>
