<svg xmlns="http://www.w3.org/2000/svg" width="16" height="10" viewBox="0 0 16 10"><g><g><path fill="#ffcc01" d="M7.55 9.444h.893s.274-.032.407-.183c.125-.135.125-.398.125-.398s-.016-1.225.54-1.4c.548-.175 1.26 1.177 2.004 1.703.563.398.994.31.994.31l2.004-.032s1.048-.063.547-.899c-.039-.072-.29-.62-1.487-1.75-1.252-1.186-1.088-.996.423-3.04.924-1.25 1.291-2.014 1.174-2.34-.11-.31-.79-.231-.79-.231l-2.255.016s-.164-.024-.29.056c-.117.071-.195.246-.195.246s-.36.963-.83 1.79c-1.002 1.736-1.409 1.823-1.573 1.72-.384-.255-.29-1.011-.29-1.544 0-1.68.25-2.38-.485-2.563C8.223.842 8.043.802 7.417.802c-.806-.008-1.487 0-1.87.19-.259.128-.455.415-.337.43.149.025.485.096.665.343.235.318.22 1.034.22 1.034s.132 1.974-.314 2.22c-.305.168-.72-.174-1.612-1.75-.462-.804-.806-1.695-.806-1.695s-.07-.167-.188-.255a.848.848 0 0 0-.345-.143l-2.144.016s-.321.008-.439.151c-.101.127-.007.39-.007.39s1.675 3.987 3.577 6C5.57 9.563 7.55 9.444 7.55 9.444z"/></g></g></svg>