<svg xmlns="http://www.w3.org/2000/svg" width="512" height="352" viewBox="0 0 512 352">
  <title>youtube</title>
  <g id="Слой_2" data-name="Слой 2">
    <g id="Capa_1" data-name="Capa 1">
      <path d="M490.24,33.92c-13.888-24.7-28.96-29.248-59.648-30.976C399.936.864,322.848,0,256.064,0,189.152,0,112.032.864,81.408,2.912,50.784,4.672,35.68,9.184,21.664,33.92,7.36,58.592,0,101.088,0,175.9v.256c0,74.5,7.36,117.312,21.664,141.728,14.016,24.7,29.088,29.184,59.712,31.264C112.032,350.944,189.152,352,256.064,352c66.784,0,143.872-1.056,174.56-2.816,30.688-2.08,45.76-6.56,59.648-31.264C504.7,293.5,512,250.688,512,176.192v-.256C512,101.088,504.7,58.592,490.24,33.92ZM192,272V80l160,96Z"/>
    </g>
  </g>
</svg>
