<svg xmlns="http://www.w3.org/2000/svg" viewBox="0 0 310 218.17"><title>youtube-play-btn</title><g id="Слой_2" data-name="Слой 2"><g id="Layer_1" data-name="Layer 1"><g id="_Группа_" data-name="&lt;Группа&gt;"><path id="_Составной_контур_" data-name="&lt;Составной контур&gt;" d="M297.92,18.73C286.73,5.43,266.07,0,226.61,0H83.39C43,0,22,5.78,10.87,19.94,0,33.75,0,54.09,0,82.25v53.67c0,54.55,12.9,82.25,83.39,82.25H226.61c34.22,0,53.18-4.79,65.44-16.53C304.63,189.6,310,170,310,135.92V82.25C310,52.55,309.16,32.09,297.92,18.73ZM199,116.49l-65,34a10,10,0,0,1-14.63-8.86V73.86A10,10,0,0,1,134,65l65,33.78a10,10,0,0,1,0,17.73Z"/></g></g></g></svg>