<svg xmlns="http://www.w3.org/2000/svg" viewBox="0 0 779.4 638.6" xml:space="preserve"><path d="M390.2 441.7c1.7-5.8 3.5-11.7 5.2-17.5 41.1-139.8 82.1-279.7 123.1-419.5 1.4-4.6 2.8-5.5 7.4-3.8 48.1 18 90.4 45.3 128.3 79.7 74.7 67.8 115.2 152.4 123.4 252.7 3.6 44.1 2.6 87.9-9 131-14.4 53.4-39.3 101.7-71 146.8-5.9 8.5-12.1 16.7-18.7 24.7-1.5 1.8-2.9 2.8-5.4 2.8-58-.3-116-.4-173.9-.7-.4 0-.9-.2-1.5-.4.7-1.9 2.5-2.2 3.8-3 54.3-32.4 102.6-71.7 141.5-121.9 33.2-42.8 51-91.7 56.8-145.2 10.6-97-19.5-179.9-88.2-249-7.3-7.3-15.8-12.8-26-15.1-13.2-3-24 .9-32.3 11.6-4.3 5.6-7 12.1-9.1 18.8-28.3 91.5-56.7 183-85 274.5-22.9 74-45.6 148-68.4 222.1-.3.9-.7 1.9-1 2.8-1.8-.6-1.6-2.1-1.9-3.3L235.6 135.7c-2.1-6.7-4.3-13.3-8.3-19.2-8-11.8-20.1-16.5-33.9-13.1-9.4 2.4-17.7 7-24.5 13.8-69 68.7-99.3 151.3-89.7 248.5 7.8 78.8 44.2 142.4 101.1 195.6 30.4 28.5 63.5 53.3 99.6 74.2.7.4 1.3.9 2 1.3-1.1 1.4-2.3.9-3.3.9l-170.4.6c-2.9 0-5.3-.2-7.4-2.9-45.6-57.6-79.9-121-94.6-193.8-7.4-36.7-7.3-73.9-4.4-111 3.7-47.1 14.9-92.4 35.6-135C73.5 121.5 129.3 66 200.2 25c16.6-9.6 34-17.6 52-24.2 4.2-1.5 5.8-1.1 7.2 3.5 29.7 100.8 59.6 201.6 89.4 302.4 12.9 43.6 25.8 87.2 38.8 130.8.4 1.4.9 2.8 1.4 4.2z" style="fill:#fff"/></svg>