<svg xmlns="http://www.w3.org/2000/svg" width="176.558" height="57.21" viewBox="0 0 176.558 57.21">
  <defs>
    <style>
      .cls-1 {
        isolation: isolate;
      }

      .cls-2 {
        fill: #fff;
      }

      .cls-3 {
        fill: #eb3f3b;
      }

      .cls-4 {
        fill: #45529d;
      }

      .cls-5 {
        fill: #ffed39;
      }
    </style>
  </defs>
  <title>logo</title>
  <g id="Слой_2" data-name="Слой 2">
    <g id="Слой_1-2" data-name="Слой 1">
      <g id="Symbols">
        <g id="Header">
          <g id="Group-11">
            <g id="Group">
              <g id="СтройГруппМонтаж" class="cls-1">
                <g class="cls-1">
                  <path class="cls-2" d="M4.692,46.845c2.059,0,3.278.826,3.81,2.339.127.336.042.49-.294.616l-.77.266c-.336.1-.476.056-.6-.294a1.989,1.989,0,0,0-2.144-1.289c-1.442,0-2.241.7-2.241,1.99v3.095c0,1.288.8,2,2.241,2a1.987,1.987,0,0,0,2.144-1.3c.14-.351.28-.42.616-.294l.756.265c.336.126.421.281.309.616C7.984,56.37,6.766,57.21,4.692,57.21c-2.577,0-4-1.4-4-3.656V50.486C.687,48.245,2.115,46.845,4.692,46.845Z"/>
                  <path class="cls-2" d="M18.582,47.531v.686c0,.35-.126.476-.476.476H15.7v7.83c0,.351-.126.477-.476.477h-.813c-.35,0-.476-.126-.476-.477v-7.83h-2.41c-.364,0-.476-.126-.476-.476v-.686c0-.35.112-.476.476-.476h6.584C18.456,47.055,18.582,47.181,18.582,47.531Z"/>
                  <path class="cls-2" d="M29.139,50.305a3.022,3.022,0,0,1-3.306,3.235H23.4v2.983c0,.351-.126.477-.477.477h-.8c-.364,0-.491-.126-.491-.477V47.531c0-.35.127-.476.491-.476h3.712A3.039,3.039,0,0,1,29.139,50.305Zm-1.849,0a1.485,1.485,0,0,0-1.625-1.612H23.4V51.9h2.269A1.474,1.474,0,0,0,27.29,50.305Z"/>
                  <path class="cls-2" d="M36.094,46.845c2.564,0,3.992,1.4,3.992,3.655v3.054c0,2.256-1.428,3.656-3.992,3.656s-4.006-1.4-4.006-3.656V50.5C32.088,48.245,33.517,46.845,36.094,46.845Zm0,1.638c-1.443,0-2.241.7-2.241,2v3.082c0,1.3.8,2,2.241,2s2.241-.7,2.241-2V50.486C38.335,49.184,37.523,48.483,36.094,48.483Z"/>
                  <path class="cls-2" d="M51.482,47.531v8.992c0,.351-.111.477-.476.477h-.8c-.364,0-.477-.126-.477-.477v-4.1a12.349,12.349,0,0,1,.337-3.208h-.056a12.945,12.945,0,0,1-1.4,2.661L45.4,56.762a.471.471,0,0,1-.476.238h-.813c-.364,0-.49-.126-.49-.477V47.531c0-.35.126-.476.49-.476h.8c.35,0,.476.126.476.476v4.062a12.884,12.884,0,0,1-.336,3.25h.056a12.906,12.906,0,0,1,1.457-2.774l3.152-4.791a.486.486,0,0,1,.462-.223h.826C51.371,47.055,51.482,47.181,51.482,47.531ZM47.6,46.354a2.368,2.368,0,0,1-2.41-1.485c-.084-.238-.028-.336.21-.42l.617-.224c.266-.07.392-.042.49.154a1.167,1.167,0,0,0,2.185,0c.1-.2.2-.224.406-.168l.714.238c.253.1.3.182.225.42A2.43,2.43,0,0,1,47.6,46.354Z"/>
                  <path class="cls-2" d="M61.421,47.531v.686c0,.35-.111.476-.476.476H57.079v7.83c0,.351-.126.477-.476.477h-.8c-.365,0-.491-.126-.491-.477V47.531c0-.35.126-.476.491-.476h5.14C61.31,47.055,61.421,47.181,61.421,47.531Z"/>
                  <path class="cls-2" d="M71.978,50.305a3.022,3.022,0,0,1-3.306,3.235H66.235v2.983c0,.351-.126.477-.476.477h-.8c-.364,0-.49-.126-.49-.477V47.531c0-.35.126-.476.49-.476h3.712A3.039,3.039,0,0,1,71.978,50.305Zm-1.849,0A1.485,1.485,0,0,0,68.5,48.693H66.235V51.9H68.5A1.474,1.474,0,0,0,70.129,50.305Z"/>
                  <path class="cls-2" d="M82.674,47.531,78.5,56.58c-.155.35-.281.42-.785.42h-.952c-.35,0-.379-.2-.239-.477l1.219-2.437-3.389-6.555c-.141-.266-.113-.476.237-.476h.827c.56,0,.728,0,.924.42l2.312,4.65,2.115-4.65c.182-.42.294-.42.854-.42h.813C82.786,47.055,82.786,47.265,82.674,47.531Z"/>
                  <path class="cls-2" d="M93.271,47.531v8.992c0,.351-.111.477-.475.477H92c-.364,0-.476-.126-.476-.477v-7.83H87.445v7.83c0,.351-.126.477-.476.477h-.8c-.364,0-.49-.126-.49-.477V47.531c0-.35.126-.476.49-.476H92.8C93.16,47.055,93.271,47.181,93.271,47.531Z"/>
                  <path class="cls-2" d="M104.7,47.531v8.992c0,.351-.111.477-.475.477h-.8c-.364,0-.476-.126-.476-.477v-7.83H98.869v7.83c0,.351-.127.477-.476.477h-.8c-.364,0-.49-.126-.49-.477V47.531c0-.35.126-.476.49-.476h6.626C104.584,47.055,104.7,47.181,104.7,47.531Z"/>
                  <path class="cls-2" d="M117.94,47.531v8.992c0,.351-.112.477-.475.477h-.715c-.364,0-.477-.126-.477-.477V52.251a12.913,12.913,0,0,1,.336-2.787h-.1a13.984,13.984,0,0,1-1.149,2.563L113.99,54.45a.539.539,0,0,1-.546.337H113a.5.5,0,0,1-.547-.337l-1.4-2.436a10.235,10.235,0,0,1-1.078-2.55h-.1a13.16,13.16,0,0,1,.294,2.8v4.257c0,.351-.111.477-.476.477h-.672c-.364,0-.491-.126-.491-.477V47.531c0-.35.127-.476.491-.476h.617c.391,0,.517.07.672.364l2.914,5.211,2.913-5.2a.569.569,0,0,1,.643-.378h.688C117.828,47.055,117.94,47.181,117.94,47.531Z"/>
                  <path class="cls-2" d="M125.5,46.845c2.563,0,3.992,1.4,3.992,3.655v3.054c0,2.256-1.429,3.656-3.992,3.656-2.578,0-4.006-1.4-4.006-3.656V50.5C121.492,48.245,122.92,46.845,125.5,46.845Zm0,1.638c-1.443,0-2.242.7-2.242,2v3.082c0,1.3.8,2,2.242,2,1.428,0,2.24-.7,2.24-2V50.486C127.738,49.184,126.926,48.483,125.5,48.483Z"/>
                  <path class="cls-2" d="M140.7,47.531v8.992c0,.351-.125.477-.49.477h-.8c-.351,0-.476-.126-.476-.477V52.784h-4.146v3.739c0,.351-.127.477-.477.477h-.8c-.364,0-.491-.126-.491-.477V47.531c0-.35.127-.476.491-.476h.8c.35,0,.477.126.477.476v3.614h4.146V47.531c0-.35.125-.476.476-.476h.8C140.578,47.055,140.7,47.181,140.7,47.531Z"/>
                  <path class="cls-2" d="M151.287,47.531v.686c0,.35-.127.476-.476.476H148.4v7.83c0,.351-.126.477-.476.477h-.812c-.351,0-.476-.126-.476-.477v-7.83h-2.41c-.364,0-.476-.126-.476-.476v-.686c0-.35.112-.476.476-.476h6.584C151.16,47.055,151.287,47.181,151.287,47.531Z"/>
                  <path class="cls-2" d="M161.045,57h-.729c-.587,0-.755-.084-.867-.42l-.644-1.808h-3.867l-.659,1.808c-.111.336-.279.42-.868.42h-.643c-.351,0-.436-.154-.323-.462l3.5-9.1a.511.511,0,0,1,.588-.392h.742c.323,0,.477.069.588.378l3.5,9.119C161.479,56.846,161.4,57,161.045,57Zm-4.132-8.335h-.1a6.078,6.078,0,0,1-.307,1.7l-1.079,2.97h2.886l-1.064-2.956A7.892,7.892,0,0,1,156.913,48.665Z"/>
                </g>
                <g class="cls-1">
                  <path class="cls-2" d="M176.318,47.517l-2.8,4.174a3.463,3.463,0,0,1,1.19,1.414l1.765,3.418c.154.267.112.477-.239.477h-.812c-.588,0-.784-.07-.952-.42l-1.4-2.844a1.5,1.5,0,0,0-1.681-.98h-.365v3.767c0,.351-.111.477-.475.477h-.8c-.364,0-.477-.126-.477-.477V52.756h-.363a1.5,1.5,0,0,0-1.681.98l-1.4,2.844c-.168.35-.364.42-.952.42h-.813c-.35,0-.392-.21-.238-.477l1.779-3.418a3.336,3.336,0,0,1,1.176-1.414l-2.8-4.174c-.155-.252-.1-.462.237-.462h.9c.561,0,.729.042.953.392l2.368,3.726c.181-.014.322-.014.476-.014h.363V47.531c0-.35.113-.476.477-.476h.8c.364,0,.475.126.475.476v3.628h.365c.169,0,.322,0,.476.014l2.367-3.726c.225-.35.393-.392.967-.392h.883C176.417,47.055,176.5,47.278,176.318,47.517Z"/>
                </g>
              </g>
              <g id="logo">
                <polygon id="Path" class="cls-3" points="87.175 0 67.758 9.609 67.758 43.141 107.161 43.141 107.161 9.817 87.175 0"/>
                <polygon id="Path-2" data-name="Path" class="cls-4" points="113.742 13.08 113.742 43.141 175 43.141 127.228 19.58 127.228 0.081 113.742 0.081 113.742 13.08"/>
                <polygon id="Path-3" data-name="Path" class="cls-5" points="0 43.141 61.258 43.141 61.258 12.826 0 43.141"/>
                <path id="Path-4" data-name="Path" d="M32.5,27.054s.975,1.95,8.449,3.9,9.749,5.525,9.587,7.962a13.392,13.392,0,0,1-.975,4.225h4.875a10.751,10.751,0,0,0,2.274-6.012c0-3.25-1.3-6.5-6.174-9.1s-7.8-3.25-9.749-5.037Z"/>
                <path id="Path-5" data-name="Path" d="M97.98,26.4a15.823,15.823,0,0,0-14.623-8.612A17.585,17.585,0,0,0,68.245,26.4l-.487.894V43.141h4.367a12.467,12.467,0,0,1-3.23-8.612c0-5.525,4.712-14.137,13.974-14.137,9.749,0,12.837,6.987,12.837,6.987Z"/>
                <path id="Path-6" data-name="Path" d="M82.544,33.066v2.6H97.493s.325,3.25-2.762,7.475h3.006s2.681-2.6,2.681-10.075Z"/>
                <polygon id="Path-7" data-name="Path" points="113.742 43.141 113.742 15.518 129.178 22.505 130.747 21.315 149.055 30.345 149.055 43.141 140.39 43.141 140.39 31.117 129.503 37.291 117.804 31.604 117.804 43.141 113.742 43.141"/>
              </g>
            </g>
          </g>
        </g>
      </g>
    </g>
  </g>
</svg>
