<?xml version="1.0" encoding="UTF-8"?>
<svg width="102px" height="25px" viewBox="0 0 102 25" version="1.1" xmlns="http://www.w3.org/2000/svg" xmlns:xlink="http://www.w3.org/1999/xlink">
    <!-- Generator: Sketch 54.1 (76490) - https://sketchapp.com -->
    <title>logo</title>
    <desc>Created with Sketch.</desc>
    <g id="Popup/dop" stroke="none" stroke-width="1" fill="none" fill-rule="evenodd">
        <g id="Popup" transform="translate(-210.000000, -2165.000000)" fill-rule="nonzero">
            <g id="4" transform="translate(0.000000, 2155.000000)">
                <g id="logo" transform="translate(210.000000, 10.000000)">
                    <polygon id="Path" fill="#EB3F3B" points="50.4229323 0 39.1917293 5.55798872 39.1917293 24.9530075 61.9830827 24.9530075 61.9830827 5.67847744"></polygon>
                    <polygon id="Path" fill="#45529D" points="65.7894737 7.56578947 65.7894737 24.9530075 101.221805 24.9530075 73.5902256 11.325188 73.5902256 0.0469924812 65.7894737 0.0469924812"></polygon>
                    <polygon id="Path" fill="#FFED39" points="0 24.9530075 35.4323308 24.9530075 35.4323308 7.41842105"></polygon>
                    <path d="M18.7969925,15.6484962 C18.7969925,15.6484962 19.3609023,16.7763158 23.6842105,17.9041353 C28.0075188,19.0319549 29.3233083,21.0996241 29.2293233,22.5093985 C29.1754102,23.3491693 28.9849418,24.1745326 28.6654135,24.9530075 L31.4849624,24.9530075 C31.4849624,24.9530075 32.8007519,23.3552632 32.8007519,21.4755639 C32.8007519,19.5958647 32.0488722,17.7161654 29.2293233,16.212406 C26.4097744,14.7086466 24.7180451,14.3327068 23.5902256,13.2988722 L18.7969925,15.6484962 Z" id="Path" fill="#000000"></path>
                    <path d="M56.6729323,15.2725564 C56.6729323,15.2725564 54.5112782,10.2913534 48.2142857,10.2913534 C42.1052632,10.2913534 39.4736842,15.2725564 39.4736842,15.2725564 L39.1917293,15.7894737 L39.1917293,24.9530075 L41.7175752,24.9530075 C41.7175752,24.9530075 39.8496241,23.1672932 39.8496241,19.9718045 C39.8496241,16.7763158 42.575188,11.7951128 47.9323308,11.7951128 C53.5714286,11.7951128 55.3571429,15.8364662 55.3571429,15.8364662 L56.6729323,15.2725564 Z" id="Path" fill="#000000"></path>
                    <path d="M47.7443609,19.1259398 L47.7443609,20.6296992 L56.3909774,20.6296992 C56.3909774,20.6296992 56.5789474,22.5093985 54.7932331,24.9530075 L56.5319549,24.9530075 C56.5319549,24.9530075 58.0827068,23.4492481 58.0827068,19.1259398 L47.7443609,19.1259398 Z" id="Path" fill="#000000"></path>
                    <polygon id="Path" fill="#000000" points="65.7894737 24.9530075 65.7894737 8.97556391 74.7180451 13.0169173 75.6256579 12.3290414 86.2150376 17.5516917 86.2150376 24.9530075 81.2030075 24.9530075 81.2030075 17.9981203 74.906015 21.5695489 68.1390977 18.2800752 68.1390977 24.9530075"></polygon>
                </g>
            </g>
        </g>
    </g>
</svg>