<svg xmlns="http://www.w3.org/2000/svg" viewBox="0 0 370.85 512" fill="#ffcc01"><title>map-marker-icon</title><g id="Слой_2" data-name="Слой 2"><g id="Layer_1" data-name="Layer 1"><path d="M185.43,0C83.18,0,0,83.18,0,185.43c0,126.88,165.94,313.16,173,321a16.71,16.71,0,0,0,24.85,0c7.07-7.87,173-194.15,173-321C370.85,83.18,287.67,0,185.43,0Zm0,469.73c-55.85-66.34-152-197.22-152-284.3,0-83.84,68.2-152,152-152s152,68.2,152,152C337.46,272.52,241.29,403.37,185.43,469.73Z"/><path d="M185.43,92.13a93.3,93.3,0,1,0,93.29,93.3A93.4,93.4,0,0,0,185.43,92.13Zm0,153.2a59.9,59.9,0,1,1,59.9-59.9A60,60,0,0,1,185.43,245.33Z"/></g></g></svg>
